<svg id="LOGOS" xmlns="http://www.w3.org/2000/svg" viewBox="0 0 81.8 44"><defs><style>.cls-1{fill:#fff;}</style></defs><polygon class="cls-1" points="70.52 33.61 71.1 33.61 71.3 33.05 70.52 33.05 70.52 32.53 71.49 32.53 71.69 31.98 69.72 31.98 69.72 34.54 70.52 34.54 70.52 33.61"/><rect class="cls-1" x="71.94" y="31.98" width="0.8" height="2.56"/><polygon class="cls-1" points="74.08 33.61 74.65 33.61 74.86 33.05 74.08 33.05 74.08 32.53 75.05 32.53 75.25 31.98 73.28 31.98 73.28 34.54 74.08 34.54 74.08 33.61"/><path class="cls-1" d="M75.62,34.54l.1-.35h.9l.11.35h.8L76.6,32h-.83l-.93,2.56Zm.55-1.91.32,1.07h-.63Z"/><path class="cls-1" d="M77.25,32.63a.42.42,0,0,0,.12.08l.15,0a.33.33,0,0,0,.15,0,.35.35,0,0,0,.13-.08.36.36,0,0,0,.08-.12.39.39,0,0,0,0-.3.36.36,0,0,0-.08-.12.35.35,0,0,0-.13-.08.33.33,0,0,0-.15,0,.4.4,0,0,0-.15,0,.42.42,0,0,0-.12.08.36.36,0,0,0-.08.12.39.39,0,0,0,0,.3A.36.36,0,0,0,77.25,32.63Zm0-.39a.17.17,0,0,1,.06-.1.31.31,0,0,1,.09-.07l.11,0,.12,0,.09.07a.17.17,0,0,1,.06.1.22.22,0,0,1,0,.12.23.23,0,0,1,0,.12.21.21,0,0,1-.06.1l-.09.07-.12,0-.11,0a.31.31,0,0,1-.09-.07.21.21,0,0,1-.06-.1.24.24,0,0,1,0-.12A.21.21,0,0,1,77.26,32.24Z"/><path class="cls-1" d="M77.46,32.39h.05l.11.19h.08l-.12-.19a.19.19,0,0,0,.09,0,.1.1,0,0,0,0-.08.13.13,0,0,0,0-.1.21.21,0,0,0-.12,0h-.16v.44h.08Zm0-.19h.13l0,0s0,0,0,0,0,0,0,0,0,0,0,0h-.13Z"/><path class="cls-1" d="M70.57,39.07a.42.42,0,0,0,.14.09.58.58,0,0,0,.19,0,.59.59,0,0,0,.2,0,.42.42,0,0,0,.14-.09.39.39,0,0,0,.08-.14.6.6,0,0,0,0-.2.58.58,0,0,0,0-.19.32.32,0,0,0-.08-.14.71.71,0,0,0-.14-.1.6.6,0,0,0-.2,0,.58.58,0,0,0-.19,0,.5.5,0,0,0-.14.1.25.25,0,0,0-.08.14.58.58,0,0,0,0,.19.6.6,0,0,0,0,.2A.29.29,0,0,0,70.57,39.07Zm.14-.44a.3.3,0,0,1,0-.1l.06-.06.09,0,.1,0,.06.06a.17.17,0,0,1,0,.1.36.36,0,0,1,0,.1.36.36,0,0,1,0,.11.12.12,0,0,1,0,.09L71,39l-.1,0-.09,0-.06-.07a.19.19,0,0,1,0-.09s0-.07,0-.11S70.71,38.66,70.71,38.63Z"/><polygon class="cls-1" points="71.78 38.82 72.12 38.82 72.12 38.65 71.78 38.65 71.78 38.46 72.14 38.46 72.14 38.29 71.54 38.29 71.54 39.18 71.78 39.18 71.78 38.82"/><polygon class="cls-1" points="72.55 38.82 72.9 38.82 72.9 38.65 72.55 38.65 72.55 38.46 72.91 38.46 72.91 38.29 72.32 38.29 72.32 39.18 72.55 39.18 72.55 38.82"/><rect class="cls-1" x="73.11" y="38.29" width="0.24" height="0.89"/><path class="cls-1" d="M73.72,39.09a.38.38,0,0,0,.17.08l.18,0,.15,0,.11,0V39l-.11,0H74.1L74,39a.21.21,0,0,1-.1-.06l-.06-.08a.37.37,0,0,1,0-.24.24.24,0,0,1,.06-.09l.08-.06.12,0h.12l.11,0,0-.19-.13,0-.13,0a.66.66,0,0,0-.21,0,.51.51,0,0,0-.16.09.49.49,0,0,0-.11.14.65.65,0,0,0,0,.21.46.46,0,0,0,0,.21A.33.33,0,0,0,73.72,39.09Z"/><rect class="cls-1" x="74.52" y="38.29" width="0.24" height="0.89"/><path class="cls-1" d="M75.23,39h.34l.07.19h.26l-.35-.89h-.29l-.34.89h.24Zm.17-.52h0l.1.35h-.22Z"/><polygon class="cls-1" points="76.66 39 76.29 39 76.29 38.29 76.05 38.29 76.05 39.18 76.66 39.18 76.66 39"/><polygon class="cls-1" points="71.06 40.52 70.69 40.52 70.69 39.8 70.46 39.8 70.46 40.69 71.06 40.69 71.06 40.52"/><rect class="cls-1" x="71.24" y="39.8" width="0.24" height="0.89"/><path class="cls-1" d="M71.83,39.9a.4.4,0,0,0-.1.15.42.42,0,0,0,0,.2.38.38,0,0,0,0,.22.53.53,0,0,0,.12.14.39.39,0,0,0,.16.07.57.57,0,0,0,.18,0h.15l.12,0,0-.18-.1,0h-.12a.25.25,0,0,1-.12,0l-.09,0a.24.24,0,0,1-.06-.09.27.27,0,0,1,0-.12.36.36,0,0,1,0-.11L72,40,72.1,40l.11,0,.12,0a.31.31,0,0,1,.12.05v-.2l-.13,0H72.2a.64.64,0,0,0-.2,0A.34.34,0,0,0,71.83,39.9Z"/><polygon class="cls-1" points="72.87 40.32 73.24 40.32 73.24 40.15 72.87 40.15 72.87 39.97 73.26 39.97 73.26 39.8 72.63 39.8 72.63 40.69 73.28 40.69 73.28 40.52 72.87 40.52 72.87 40.32"/><polygon class="cls-1" points="73.7 40.08 73.7 40.08 74.01 40.69 74.31 40.69 74.31 39.8 74.09 39.8 74.09 40.41 74.09 40.41 73.79 39.8 73.49 39.8 73.49 40.69 73.71 40.69 73.7 40.08"/><path class="cls-1" d="M74.62,40.27l.11,0,.1,0,.07,0a.07.07,0,0,1,0,.11l0,0h-.24l-.11-.05,0,.2.13,0h.28l.13-.05a.2.2,0,0,0,.09-.09.33.33,0,0,0,0-.15.21.21,0,0,0,0-.12.2.2,0,0,0-.08-.08l-.1-.05-.1,0-.08,0a.05.05,0,0,1,0-.05.08.08,0,0,1,0,0l0,0H75l.1,0v-.18l-.1,0h-.26l-.13,0a.2.2,0,0,0-.09.09.25.25,0,0,0,0,.13.18.18,0,0,0,0,.13A.27.27,0,0,0,74.62,40.27Z"/><polygon class="cls-1" points="76.01 39.97 76.01 39.8 75.38 39.8 75.38 40.69 76.02 40.69 76.02 40.52 75.62 40.52 75.62 40.32 75.99 40.32 75.99 40.15 75.62 40.15 75.62 39.97 76.01 39.97"/><path class="cls-1" d="M76.23,39.8v.89h.33a.75.75,0,0,0,.21,0,.4.4,0,0,0,.16-.08.26.26,0,0,0,.11-.14.41.41,0,0,0,0-.21A.46.46,0,0,0,77,40a.36.36,0,0,0-.1-.14l-.17-.07-.21,0Zm.53.25a.25.25,0,0,1,.08.2.3.3,0,0,1-.07.2.33.33,0,0,1-.21.07h-.09V40h.09A.24.24,0,0,1,76.76,40.05Z"/><path class="cls-1" d="M70.69,41.9h.1a.4.4,0,0,0,.26-.08.26.26,0,0,0,.09-.21.24.24,0,0,0-.1-.22.47.47,0,0,0-.3-.08h-.28v.9h.23Zm0-.42h.12l0,0,0,0a.07.07,0,0,1,0,.05s0,0,0,.06l0,0,0,0h-.12Z"/><path class="cls-1" d="M72,41.89l0-.06a.05.05,0,0,0,0,0l0,0h0a.19.19,0,0,0,.13-.07.24.24,0,0,0,0-.15.3.3,0,0,0,0-.1l-.06-.07-.1,0-.11,0h-.42v.9h.24v-.36h.1l0,0,0,.06,0,.1,0,.16h.25L72,42A.11.11,0,0,1,72,41.89Zm-.18-.25,0,0h-.17v-.21h.18l0,0a.07.07,0,0,1,0,0S71.78,41.63,71.77,41.64Z"/><path class="cls-1" d="M73,41.42a.42.42,0,0,0-.14-.09.6.6,0,0,0-.2,0,.58.58,0,0,0-.19,0,.42.42,0,0,0-.14.09.36.36,0,0,0-.08.15.62.62,0,0,0,0,.38.36.36,0,0,0,.08.15.42.42,0,0,0,.14.09.58.58,0,0,0,.19,0,.6.6,0,0,0,.2,0A.42.42,0,0,0,73,42.1a.36.36,0,0,0,.08-.15.62.62,0,0,0,0-.38A.36.36,0,0,0,73,41.42Zm-.14.45a.36.36,0,0,1,0,.09.19.19,0,0,1-.16.09l-.09,0L72.49,42a.36.36,0,0,1,0-.09s0-.07,0-.11,0-.07,0-.11a.36.36,0,0,1,0-.09l.06-.06a.15.15,0,0,1,.09,0,.16.16,0,0,1,.1,0s0,0,.06.06a.36.36,0,0,1,0,.09s0,.07,0,.11S72.84,41.83,72.84,41.87Z"/><path class="cls-1" d="M74,41.41a.29.29,0,0,0-.16-.07.78.78,0,0,0-.22,0h-.32v.9h.32a.66.66,0,0,0,.21,0,.44.44,0,0,0,.17-.07A.36.36,0,0,0,74.1,42a.46.46,0,0,0,0-.21.48.48,0,0,0,0-.22A.28.28,0,0,0,74,41.41Zm-.17.55a.24.24,0,0,1-.2.07h-.09v-.54h.09a.26.26,0,0,1,.2.07.29.29,0,0,1,0,.4Z"/><path class="cls-1" d="M74.44,42.14a.31.31,0,0,0,.13.06.39.39,0,0,0,.16,0,.36.36,0,0,0,.15,0,.31.31,0,0,0,.13-.06.44.44,0,0,0,.08-.11.41.41,0,0,0,0-.16v-.56h-.24v.52a.19.19,0,0,1,0,.08.14.14,0,0,1,0,.07.12.12,0,0,1,0,.05l-.07,0-.08,0A.12.12,0,0,1,74.6,42a.14.14,0,0,1,0-.07.19.19,0,0,1,0-.08v-.52h-.24v.56a.41.41,0,0,0,0,.16A.44.44,0,0,0,74.44,42.14Z"/><path class="cls-1" d="M76,42l-.12,0-.12,0L75.63,42a.15.15,0,0,1-.06-.09.22.22,0,0,1,0-.12.2.2,0,0,1,0-.11.19.19,0,0,1,.05-.09l.09-.06a.2.2,0,0,1,.11,0h.12l.12,0,0-.19-.13,0h-.14a.64.64,0,0,0-.2,0,.42.42,0,0,0-.16.09.26.26,0,0,0-.11.14.45.45,0,0,0,0,.2.48.48,0,0,0,0,.22.41.41,0,0,0,.12.14.48.48,0,0,0,.16.08l.18,0H76l.12,0V42Z"/><polygon class="cls-1" points="76.18 41.49 76.4 41.49 76.4 42.21 76.64 42.21 76.64 41.49 76.86 41.49 76.86 41.31 76.18 41.31 76.18 41.49"/><path class="cls-1" d="M68.08,29.85V44H79.4V29.85Zm11.19,14H68.2V37H79.27Zm0-7H68.2V30H79.27Z"/><polygon class="cls-1" points="6.3 32.95 12.95 32.95 13.48 29.85 2.93 29.85 0.43 44 4.36 44 5.29 38.64 10.67 38.64 11.2 35.55 5.85 35.55 6.3 32.95"/><polygon class="cls-1" points="14.86 29.85 12.36 44 16.27 44 18.77 29.85 14.86 29.85"/><polygon class="cls-1" points="28.41 35.55 23.05 35.55 23.51 32.95 30.16 32.95 30.69 29.85 20.14 29.85 17.64 44 21.57 44 22.5 38.64 27.88 38.64 28.41 35.55"/><path class="cls-1" d="M34,29.83,26.57,44h3.77l1.19-2.48h4.9L36.75,44h3.89L38.35,29.83Zm-1,8.73,2.38-5.1h.08l.65,5.1Z"/><path class="cls-1" d="M48.31,40.81l1.34-1.21c1.91-1.7,4.78-3.87,4.78-6.68,0-2.53-2.07-3.44-4.32-3.44-2.85,0-5.32,1.27-5.86,4.16,0,.06-.12.72-.14.78h3.55c.16-1,.47-2.07,1.73-2.07a1.11,1.11,0,0,1,1.25,1.11c0,1.32-1.67,2.85-2.72,3.85l-4.73,4.52L42.8,44h9.9l.55-3.09h-5Z"/><path class="cls-1" d="M60.78,39.6c1.91-1.7,4.78-3.87,4.78-6.68,0-2.53-2.07-3.44-4.32-3.44-2.85,0-5.32,1.27-5.86,4.16,0,.06-.12.72-.14.78h3.55c.17-1,.47-2.07,1.73-2.07a1.11,1.11,0,0,1,1.25,1.11c0,1.32-1.67,2.85-2.71,3.85l-4.74,4.52L53.94,44h9.9l.54-3.09h-5l0-.1Z"/><path class="cls-1" d="M39.7,0A13.77,13.77,0,1,0,53.46,13.76,13.77,13.77,0,0,0,39.7,0ZM34.55,6.37h7.08L40.55,8.09H33.47ZM33.12,18.78a.77.77,0,0,1-.23.56.74.74,0,0,1-.56.24H31.4a.77.77,0,0,1-.56-.23.76.76,0,0,1-.22-.55v-.37h.58l.08.34a.27.27,0,0,0,.29.21h.64a.24.24,0,0,0,.19-.08.34.34,0,0,0,.07-.22v-.41c0-.2-.09-.3-.26-.3h-.8a.79.79,0,0,1-.79-.79v-.54a.76.76,0,0,1,.23-.55.8.8,0,0,1,.56-.23h.92a.78.78,0,0,1,.56.22.74.74,0,0,1,.22.55V17h-.57l-.09-.3a.27.27,0,0,0-.29-.22h-.62a.23.23,0,0,0-.19.09.33.33,0,0,0-.08.22v.31c0,.2.09.29.27.29h.79a.76.76,0,0,1,.56.24.78.78,0,0,1,.23.55Zm3.24-1.36a.73.73,0,0,1-.23.56.77.77,0,0,1-.56.23h-1v1.37h-.66V15.86h1.68a.77.77,0,0,1,.56.23.73.73,0,0,1,.23.55Zm3.15,1.36a.73.73,0,0,1-.23.56.74.74,0,0,1-.56.24h-.89a.74.74,0,0,1-.56-.24.77.77,0,0,1-.23-.56V16.64a.79.79,0,0,1,.79-.78h.89a.77.77,0,0,1,.56.23.73.73,0,0,1,.23.55ZM39.68,15h-9l2.18-3.45H31.3l1.08-1.72h6.67L38,11.53H35l-1.1,1.72h4.81l4.4-6.94L48.55,15H46.49L45.4,13.25H42.16l1.09-1.72h1.06l-1.23-2Zm2.52,4.61-.6-1.46H41v1.46h-.65V15.86H42a.79.79,0,0,1,.79.78v.65a.83.83,0,0,1-.14.46.91.91,0,0,1-.36.29l.65,1.54Zm3.52-3.12h-.95v3.12h-.66V16.46h-1v-.6h2.56Zm3,2.32a.77.77,0,0,1-.23.56.74.74,0,0,1-.56.24H47a.77.77,0,0,1-.56-.23.72.72,0,0,1-.22-.55v-.37h.57l.09.34a.27.27,0,0,0,.29.21h.63a.24.24,0,0,0,.2-.08.41.41,0,0,0,.07-.22v-.41q0-.3-.27-.3H47a.73.73,0,0,1-.56-.23.77.77,0,0,1-.23-.56v-.54a.79.79,0,0,1,.79-.78h.92a.74.74,0,0,1,.55.22.75.75,0,0,1,.23.55V17h-.57l-.09-.3a.27.27,0,0,0-.29-.22h-.62a.25.25,0,0,0-.2.09.38.38,0,0,0-.07.22v.31c0,.2.09.29.27.29h.79a.72.72,0,0,1,.55.24.75.75,0,0,1,.24.55ZM49.1,16H49v.3h-.07V16h-.14V16h.35Zm.42.3v-.26a.08.08,0,0,1,0,0l-.11.17h0l-.12-.17,0,0s0,0,0,0v.22h-.06V16h.06l.14.22.14-.22h.06v.36Z"/><path class="cls-1" d="M41.83,16.46H41v1.06h.86a.26.26,0,0,0,.19-.08.32.32,0,0,0,.07-.22v-.46a.34.34,0,0,0-.07-.22A.26.26,0,0,0,41.83,16.46Z"/><path class="cls-1" d="M35.44,16.46h-.89v1.15h.89a.26.26,0,0,0,.19-.08.33.33,0,0,0,.08-.22v-.55a.33.33,0,0,0-.08-.22A.26.26,0,0,0,35.44,16.46Z"/><path class="cls-1" d="M38.59,16.46H38a.26.26,0,0,0-.19.08.34.34,0,0,0-.07.22v1.91a.32.32,0,0,0,.07.22A.23.23,0,0,0,38,19h.63a.23.23,0,0,0,.19-.09.33.33,0,0,0,.08-.22V16.76a.35.35,0,0,0-.08-.22A.26.26,0,0,0,38.59,16.46Z"/></svg>