<?xml version="1.0" encoding="UTF-8"?>
<svg width="120px" height="25px" viewBox="0 0 120 25" version="1.1" xmlns="http://www.w3.org/2000/svg" xmlns:xlink="http://www.w3.org/1999/xlink">
    <title>29B40BA8-7618-465C-B308-CCCAE5C03B41</title>
    <defs>
        <linearGradient x1="65.7261102%" y1="-116.012683%" x2="44.960126%" y2="95.3331707%" id="linearGradient-1">
            <stop stop-color="#FBDC79" offset="0%"></stop>
            <stop stop-color="#FFFFFF" offset="100%"></stop>
        </linearGradient>
        <linearGradient x1="20.773435%" y1="225.879213%" x2="58.1450046%" y2="-6.91853933%" id="linearGradient-2">
            <stop stop-color="#FBDC79" offset="0%"></stop>
            <stop stop-color="#FFFFFF" offset="100%"></stop>
        </linearGradient>
    </defs>
    <g id="Page-1" stroke="none" stroke-width="1" fill="none" fill-rule="evenodd" opacity="0.75">
        <g id="Footer-con-sponsors-Siempre-desplegados/1440" transform="translate(-487.000000, -716.000000)">
            <g id="Group-12" transform="translate(261.000000, 652.000000)">
                <g id="Group-5" transform="translate(0.000000, 51.000000)">
                    <g id="logo_abinvesting_blanco" transform="translate(226.000000, 13.000000)">
                        <path d="M32.742093,20.7279895 L32.11038,18.9145861 L28.0348121,18.9145861 L27.4030991,20.7279895 L24,20.7279895 L28.5035024,9.51248357 L31.600934,9.51248357 L36.2267035,20.7279895 L32.742093,20.7279895 L32.742093,20.7279895 Z M31.3360221,16.4901445 L30.0522182,13.021025 L28.7887922,16.4901445 L31.3360221,16.4901445 Z M44.6019953,14.7950066 C45.152197,15.0512484 45.5801316,15.4060447 45.8857992,15.8988173 C46.2118446,16.39159 46.3544895,16.9237845 46.3544895,17.5348226 C46.3544895,18.4415243 45.9876884,19.2102497 45.2948419,19.8015769 C44.5816175,20.412615 43.7053704,20.7082786 42.6253449,20.7082786 L37.3271068,20.7082786 L37.3271068,9.49277267 L42.5234557,9.49277267 C43.5423477,9.49277267 44.3982169,9.74901445 45.0503078,10.3009198 C45.7023986,10.8528252 46.0488219,11.542707 46.0488219,12.3508541 C46.0488219,12.8436268 45.906177,13.2969777 45.661643,13.7503285 C45.3967311,14.2036794 45.02993,14.5387648 44.6019953,14.7950066 L44.6019953,14.7950066 Z M42.747612,13.5926413 C42.9513904,13.4152431 43.0329017,13.1787122 43.0329017,12.8830486 C43.0329017,12.587385 42.9513904,12.3508541 42.747612,12.173456 C42.5438336,11.9960578 42.2992995,11.9172142 41.9732541,11.9172142 L40.3634048,11.9172142 L40.3634048,13.868594 L41.9528762,13.868594 C42.2992995,13.868594 42.5438336,13.7700394 42.747612,13.5926413 Z M42.0955211,18.1852825 C42.4419444,18.1852825 42.7068563,18.1064389 42.9310125,17.9093298 C43.1347909,17.7122208 43.2366801,17.4756899 43.2366801,17.1800263 C43.2366801,16.8843627 43.1347909,16.6281209 42.9310125,16.4507227 C42.7272341,16.2536137 42.4419444,16.17477 42.0955211,16.17477 L40.3634048,16.17477 L40.3634048,18.2049934 L42.0955211,18.1852825 L42.0955211,18.1852825 Z M48.7386967,10.5768725 L48.7386967,9 L50.2670346,9 L50.2670346,10.5768725 L48.7386967,10.5768725 Z M48.7794523,20.7279895 L48.7794523,12.0749014 L50.1855232,12.0749014 L50.1855232,20.7279895 L48.7794523,20.7279895 Z M56.808321,11.8777924 C57.8475907,11.8777924 58.6627043,12.2128778 59.2944173,12.9027595 C59.9057525,13.5926413 60.2317979,14.4599212 60.2317979,15.544021 L60.2317979,20.7279895 L58.825727,20.7279895 L58.825727,15.8593955 C58.825727,14.9724047 58.6219486,14.3022339 58.2143918,13.8291721 C57.8068351,13.3561104 57.2158777,13.1195795 56.4415198,13.1195795 C55.6875398,13.1195795 55.0354489,13.3955322 54.526003,13.9474376 C54.016557,14.499343 53.7516451,15.1892247 53.7516451,15.9973719 L53.7516451,20.7279895 L52.3863299,20.7279895 L52.3863299,12.0749014 L53.384844,12.0749014 L53.6497559,13.4152431 C53.9758013,12.9224704 54.4241138,12.5479632 54.9946933,12.2917214 C55.5245171,12.0157687 56.1358523,11.8777924 56.808321,11.8777924 L56.808321,11.8777924 Z M68.9127574,12.0749014 L70.3392061,12.0749014 L66.5896837,20.7279895 L65.3262577,20.7279895 L61.4952239,12.0749014 L62.9624284,12.0749014 L65.9783485,18.9540079 L68.9127574,12.0749014 L68.9127574,12.0749014 Z M80.0390575,16.4310118 C80.0390575,16.5886991 80.0186797,16.7463863 80.0186797,16.9237845 L72.4585014,16.9237845 C72.5603906,17.7319317 72.9068138,18.3823916 73.4570155,18.8554534 C74.027595,19.348226 74.7408194,19.5847569 75.5559329,19.5847569 C76.1672681,19.5847569 76.7174698,19.4467806 77.1861601,19.1905388 C77.6548504,18.934297 78.0420293,18.5597898 78.3069412,18.086728 L79.7741456,18.086728 C79.4073445,18.9737188 78.836765,19.6636005 78.082785,20.1760841 C77.3491828,20.6688568 76.4933135,20.9250986 75.5355551,20.9250986 C74.7000637,20.9250986 73.9257058,20.7279895 73.2328593,20.3337714 C72.5400127,19.9395532 71.9898111,19.4073587 71.6026321,18.717477 C71.2154532,18.0275953 71.0116748,17.2588699 71.0116748,16.4113009 C71.0116748,15.5637319 71.2154532,14.7950066 71.6026321,14.1051248 C71.9898111,13.4152431 72.5400127,12.8633377 73.2328593,12.4691196 C73.9257058,12.0749014 74.7000637,11.8777924 75.5355551,11.8777924 C76.4118022,11.8777924 77.1861601,12.0749014 77.8790066,12.4888305 C78.5718531,12.9027595 79.0812991,13.434954 79.4481002,14.1248357 C79.855657,14.8344284 80.0390575,15.6031537 80.0390575,16.4310118 L80.0390575,16.4310118 Z M75.5763108,13.1787122 C74.781575,13.1787122 74.1091063,13.3955322 73.5385269,13.848883 C72.9883252,14.3022339 72.6419019,14.913272 72.4788792,15.6622865 L78.6533645,15.6622865 C78.5107196,14.8935611 78.1642963,14.282523 77.5937168,13.848883 C77.0435152,13.3955322 76.3710465,13.1787122 75.5763108,13.1787122 L75.5763108,13.1787122 Z M84.9501167,20.9053876 C83.8904691,20.9053876 83.0549777,20.6491459 82.4232647,20.1366623 C81.7915517,19.6241787 81.4451284,18.934297 81.4247506,18.0670171 L82.7900658,18.0670171 C82.8104436,18.5597898 83.0549777,18.9540079 83.4421567,19.2299606 C83.8497134,19.5059133 84.3591594,19.6438896 85.0112503,19.6438896 C85.6225854,19.6438896 86.1320314,19.5256242 86.5192104,19.2693824 C86.9063893,19.0328515 87.1101677,18.6977661 87.1101677,18.2838371 C87.1101677,18.1261498 87.0897899,17.9881735 87.0286563,17.8501971 C86.9675228,17.7122208 86.8860115,17.6136662 86.7637444,17.5151117 C86.6414774,17.4362681 86.5192104,17.3377135 86.4173212,17.2785808 C86.2950541,17.2194481 86.1320314,17.1603154 85.928253,17.1011827 C85.7244746,17.0420499 85.5614519,17.022339 85.3984292,16.9829172 C85.2557843,16.9632063 85.0520059,16.9237845 84.787094,16.8843627 C84.5833156,16.8646518 84.4406708,16.82523 84.3184037,16.8055191 C84.2165145,16.7858081 84.0534918,16.7463863 83.8700913,16.7266754 C83.6663129,16.6872536 83.523668,16.6478318 83.4217788,16.60841 C83.3198896,16.5886991 83.1568669,16.5295664 82.9938442,16.4704336 C82.8308215,16.4113009 82.6881766,16.3521682 82.6066653,16.2733246 C82.5047761,16.1944809 82.382509,16.1156373 82.2806198,16.0367937 C82.1583528,15.9579501 82.0564636,15.8396846 81.9953301,15.7214192 C81.9138187,15.6031537 81.8526852,15.4848883 81.7915517,15.346912 C81.7100403,15.2089356 81.6692847,15.0709593 81.6489068,14.8935611 C81.628529,14.7358739 81.6081511,14.5387648 81.6081511,14.3416557 C81.6081511,13.5926413 81.9138187,13.0013141 82.5251539,12.5282523 C83.1364891,12.0749014 83.9516026,11.8383706 84.9501167,11.8383706 C85.9486309,11.8383706 86.7637444,12.0749014 87.3547018,12.5479632 C87.9456591,13.021025 88.2717045,13.6714849 88.2920824,14.499343 L86.9675228,14.499343 C86.947145,14.0262812 86.7433666,13.6714849 86.3969433,13.4152431 C86.0301422,13.1590013 85.5410741,13.0407359 84.9297389,13.0407359 C84.3184037,13.0407359 83.8700913,13.1590013 83.5032902,13.3758213 C83.1568669,13.5926413 82.9734664,13.9080158 82.9734664,14.282523 C82.9734664,14.4204993 82.9938442,14.5584757 83.0549777,14.6767411 C83.0957334,14.7950066 83.1976226,14.8935611 83.2995118,14.9921156 C83.401401,15.0709593 83.523668,15.130092 83.6255572,15.1892247 C83.7274464,15.2483574 83.8904691,15.2877792 84.0942475,15.346912 C84.2980259,15.3863338 84.4610486,15.4257556 84.6036935,15.4454665 C84.7463384,15.4651774 84.9297389,15.5045992 85.1946508,15.5243101 C86.0708979,15.6622865 86.7026109,15.8199737 87.069412,15.9579501 C87.9456591,16.3324573 88.4143494,16.9632063 88.4958608,17.8501971 C88.5162386,17.9487516 88.5162386,18.0473062 88.5162386,18.1458607 C88.5162386,18.9540079 88.210571,19.6044678 87.5584802,20.0775296 C86.8656336,20.6688568 86.0097644,20.9053876 84.9501167,20.9053876 L84.9501167,20.9053876 Z M94.1609,19.4664915 L95.1186585,19.4664915 L95.1186585,20.7279895 L93.9774995,20.7279895 C93.019741,20.7279895 92.265761,20.4717477 91.7155593,19.9198423 C91.1653577,19.3679369 90.8800679,18.6386334 90.8800679,17.7122208 L90.8800679,13.2969777 L89.3109743,13.2969777 L89.3109743,13.0407359 L92.0416048,10.2220762 L92.2453831,10.2220762 L92.2453831,12.0551905 L95.0371471,12.0551905 L95.0371471,13.2969777 L92.2453831,13.2969777 L92.2453831,17.653088 C92.2453831,18.2444152 92.4084059,18.6780552 92.7344513,18.9934297 C93.1012524,19.3088042 93.5495648,19.4664915 94.1609,19.4664915 L94.1609,19.4664915 Z M96.9322861,10.5768725 L96.9322861,9 L98.4606241,9 L98.4606241,10.5768725 L96.9322861,10.5768725 Z M96.9730418,20.7279895 L96.9730418,12.0749014 L98.3791127,12.0749014 L98.3791127,20.7279895 L96.9730418,20.7279895 Z M105.633623,11.8777924 C106.672893,11.8777924 107.508385,12.2128778 108.11972,12.9027595 C108.731055,13.5926413 109.0571,14.4599212 109.0571,15.544021 L109.0571,20.7279895 L107.65103,20.7279895 L107.65103,15.8593955 C107.65103,14.9724047 107.447251,14.3022339 107.039694,13.8291721 C106.632138,13.3561104 106.04118,13.1195795 105.266822,13.1195795 C104.512842,13.1195795 103.860751,13.3955322 103.351305,13.9474376 C102.841859,14.499343 102.576948,15.1892247 102.576948,15.9973719 L102.576948,20.7279895 L101.170877,20.7279895 L101.170877,12.0749014 L102.169391,12.0749014 L102.434303,13.4152431 C102.760348,12.9224704 103.208661,12.5479632 103.77924,12.2917214 C104.329442,12.0157687 104.940777,11.8777924 105.633623,11.8777924 Z M119.062619,12.0749014 L120,12.0749014 L120,19.5059133 C120,20.9053876 119.612821,22.0091984 118.838463,22.7976347 C118.064105,23.586071 117.004458,24 115.65952,24 C114.579495,24 113.662492,23.7437582 112.92889,23.2312746 C112.195288,22.7187911 111.685842,21.9894875 111.461685,21.0827858 L112.867756,21.0827858 C113.071535,21.6149803 113.417958,22.0289093 113.927404,22.3245729 C114.43685,22.6202365 115.027807,22.7779238 115.679898,22.7779238 C116.576523,22.7779238 117.310125,22.5019711 117.839949,21.9500657 C118.390151,21.3981603 118.655063,20.6688568 118.655063,19.7030223 L118.655063,19.151117 C118.247506,19.565046 117.778816,19.8607096 117.228614,20.0972405 C116.658034,20.3140604 116.046699,20.4323259 115.435364,20.4323259 C114.62025,20.4323259 113.886648,20.2352168 113.234557,19.8804205 C112.582467,19.5059133 112.052643,18.9934297 111.665464,18.3429698 C111.298663,17.6925099 111.094884,16.9632063 111.094884,16.17477 C111.094884,15.3863338 111.298663,14.6570302 111.665464,14.0065703 C112.032265,13.3363995 112.562089,12.8239159 113.234557,12.4494087 C113.886648,12.0749014 114.640628,11.8975033 115.435364,11.8975033 C116.148588,11.8975033 116.780301,12.0354796 117.371259,12.3114323 C117.982594,12.5676741 118.471662,12.9618922 118.879219,13.434954 L119.062619,12.0749014 L119.062619,12.0749014 Z M113.336447,18.2838371 C113.927404,18.8554534 114.661006,19.131406 115.537253,19.131406 C116.4135,19.131406 117.16748,18.8554534 117.73806,18.303548 C118.308639,17.7516426 118.614307,17.022339 118.614307,16.17477 C118.614307,15.3272011 118.329017,14.5978975 117.73806,14.0262812 C117.16748,13.4743758 116.433878,13.1787122 115.537253,13.1787122 C114.640628,13.1787122 113.907026,13.4546649 113.336447,14.0262812 C112.745489,14.5978975 112.4602,15.3074901 112.4602,16.1550591 C112.4602,17.022339 112.745489,17.7122208 113.336447,18.2838371 Z" id="Shape" fill="#FFFFFF" fill-rule="nonzero"></path>
                        <polygon id="Path" fill="url(#linearGradient-1)" fill-rule="nonzero" points="16.7716535 12 16 10.6829268 17.0393701 7 17.2755906 7.17073171 17.6220472 7.41463415 18 7.65853659"></polygon>
                        <path d="M12.9998646,18 L11.949576,18 L11,21.3932584 L11.2158127,21.5505618 L11.532338,21.7752809 L11.8776384,22 C11.8776384,22 13.0142521,18 12.9998646,18 Z" id="Path" fill="url(#linearGradient-2)" fill-rule="nonzero"></path>
                        <path d="M8.42394822,1 L9.9201726,1 L8.95685005,3.25065732 L5.39050701,11.601227 L4.42718447,13.8308501 L2.82847896,17.5749343 L2.3570658,18.6476775 L1.39374326,20.8983348 L0.389428263,19.762489 L1.41423948,17.3645925 L0,15.450482 L2.80798274,8.8878177 L5.06256742,3.62927257 L7.399137,3.39789658 L8.42394822,1 L8.42394822,1 Z M17.5037756,5.10166521 L19,5.10166521 L17.4012945,8.84574934 L14.4498382,15.681858 L12.0722762,21.2559159 L12.0722762,21.2559159 L10.4735707,25 L9.46925566,23.8641543 L10.4940669,21.4662577 L9.0798274,19.5311131 L11.8878101,12.9684487 L14.1423948,7.70990359 L16.4789644,7.47852761 L17.5037756,5.10166521 L17.5037756,5.10166521 Z" id="Shape" fill="#FFFFFF"></path>
                        <polygon id="Path" fill="#FFFFFF" points="14.5592105 0 16 0 14.6381579 3.23505324 13.0986842 6.87960688 10.4342105 13.1244881 8.32236842 18.1203931 6.78289474 21.7649468 6.21052632 23.1162981 6.21052632 23.1162981 5.42105263 25 4.45394737 23.8943489 5.32236842 21.8263718 4 19.8812449 7.96710526 10.5036855 11.4210526 2.37510238 13.7105263 2.06797707"></polygon>
                    </g>
                </g>
            </g>
        </g>
    </g>
</svg>